<svg width="20" height="20" viewBox="0 0 20 20" fill="none" xmlns="http://www.w3.org/2000/svg"><path d="M13.849 0h.142c.114 1.41-.424 2.464-1.078 3.228-.642.757-1.521 1.493-2.943 1.381-.095-1.39.444-2.366 1.098-3.127C11.674.772 12.785.14 13.849 0m4.304 14.68v.04c-.4 1.21-.97 2.247-1.665 3.21-.635.874-1.413 2.05-2.803 2.05-1.2 0-1.998-.772-3.228-.793-1.302-.021-2.017.645-3.207.813h-.406c-.874-.127-1.58-.819-2.093-1.442-1.515-1.843-2.686-4.223-2.903-7.268v-.895c.092-2.18 1.151-3.952 2.559-4.811.743-.457 1.764-.846 2.902-.672.487.075.985.242 1.421.407.414.16.931.441 1.421.426.332-.01.662-.182.997-.304.98-.354 1.941-.76 3.207-.57 1.522.23 2.603.907 3.27 1.95-1.287.82-2.305 2.054-2.131 4.163.154 1.915 1.268 3.036 2.659 3.697" fill="#141415"/></svg>